<?xml version="1.0" encoding="utf-8"?>
<!-- Generator: Adobe Illustrator 16.0.0, SVG Export Plug-In . SVG Version: 6.00 Build 0)  -->
<!DOCTYPE svg PUBLIC "-//W3C//DTD SVG 1.0//EN" "http://www.w3.org/TR/2001/REC-SVG-20010904/DTD/svg10.dtd">
<svg version="1.0" id="Layer_1" xmlns="http://www.w3.org/2000/svg" xmlns:xlink="http://www.w3.org/1999/xlink" x="0px" y="0px"
	 width="165.15px" height="46.48px" viewBox="0 0 165.15 46.48" enable-background="new 0 0 165.15 46.48" xml:space="preserve">
<path fill="#C3C632" d="M164.98,11.705c1.023-5.262-2.691-10.411-8.297-11.501c-5.605-1.089-10.979,2.293-12.001,7.556
	c-1.023,5.263,6.442,21.042,6.442,21.042S163.957,16.967,164.98,11.705"/>
<path d="M149.042,43.35c-0.869,0-1.359-0.604-1.359-1.449v-1.85c0-0.894,0.49-1.502,1.363-1.502c0.871,0,1.361,0.608,1.361,1.453
	V41.9C150.408,42.746,149.917,43.35,149.042,43.35 M150.468,37.926v0.671c-0.301-0.504-0.811-0.813-1.521-0.813
	c-1.268,0-2.066,0.932-2.066,2.244v1.897c0,1.261,0.799,2.192,2.066,2.192c0.676,0,1.154-0.242,1.461-0.646v0.787
	c0,0.875-0.475,1.456-1.322,1.456c-0.808,0-1.318-0.436-1.318-1.146v-0.057h-0.803v0.081c0,1.103,0.825,1.889,2.117,1.889
	c1.332,0,2.129-0.932,2.129-2.198v-6.356H150.468z M144.907,37.782c-0.781,0-1.334,0.361-1.651,0.96v-0.816h-0.742v6.383h0.803
	v-3.974c0-1.077,0.584-1.691,1.478-1.691h0.335v-0.861H144.907z M137.832,38.549c0.91,0,1.393,0.61,1.393,1.493v0.548h-2.785v-0.534
	C136.439,39.159,136.933,38.549,137.832,38.549 M139.261,42.244v0.105c0,0.775-0.5,1.335-1.41,1.335
	c-0.909,0-1.412-0.624-1.412-1.499v-0.864h3.589v-1.304c0-1.302-0.806-2.234-2.194-2.234c-1.379,0-2.197,0.933-2.197,2.249v2.178
	c0,1.29,0.826,2.242,2.219,2.242c1.386,0,2.209-0.889,2.209-2.09v-0.118H139.261z M132.541,42.184c0,0.896-0.49,1.501-1.363,1.501
	c-0.871,0-1.361-0.606-1.361-1.453v-2.229c0-0.847,0.49-1.453,1.361-1.453c0.873,0,1.363,0.608,1.363,1.501V42.184z M131.278,37.783
	c-0.677,0-1.155,0.242-1.462,0.649v-2.867h-0.803v8.743h0.742v-0.672c0.303,0.504,0.811,0.815,1.522,0.815
	c1.263,0,2.065-0.938,2.065-2.244v-2.183C133.343,38.721,132.541,37.783,131.278,37.783z M123.444,43.578l3.021-4.966v-0.687h-3.898
	v0.731h2.936l-3.016,4.965v0.687h4.005v-0.73H123.444z M119.425,37.926v4.288c0,0.916-0.492,1.471-1.312,1.471
	c-0.859,0-1.316-0.549-1.316-1.471v-4.288h-0.804v4.401c0,1.239,0.741,2.125,1.974,2.125c0.709,0,1.217-0.309,1.519-0.825v0.682
	h0.743v-6.383H119.425z M111.54,38.549c0.911,0,1.394,0.61,1.394,1.493v0.548h-2.785v-0.534
	C110.148,39.159,110.642,38.549,111.54,38.549 M112.968,42.244v0.105c0,0.775-0.498,1.335-1.408,1.335s-1.412-0.624-1.412-1.499
	v-0.864h3.588v-1.304c0-1.302-0.807-2.234-2.194-2.234c-1.379,0-2.196,0.933-2.196,2.249v2.178c0,1.29,0.826,2.242,2.217,2.242
	c1.387,0,2.209-0.889,2.209-2.09v-0.118H112.968z M107.599,37.782c-0.781,0-1.334,0.361-1.651,0.96v-0.816h-0.742v6.383h0.802
	v-3.974c0-1.077,0.586-1.691,1.479-1.691h0.335v-0.861H107.599z M102.367,44.309h0.938l-2.324-3.68l2.148-2.703h-0.984l-2.461,3.076
	v-5.439h-0.801v8.746h0.801v-2.149l0.738-0.92L102.367,44.309z M93.328,38.657v-0.731h-1.275v-1.954H91.25v1.954h-0.93v0.731h0.93
	v4.201c0,0.846,0.6,1.449,1.469,1.449h0.592v-0.767h-0.457c-0.483,0-0.801-0.326-0.801-0.834v-4.05H93.328z M88.624,38.657v-0.731
	h-1.274v-1.954h-0.803v1.954h-0.931v0.731h0.931v4.201c0,0.846,0.6,1.449,1.469,1.449h0.592v-0.767H88.15
	c-0.484,0-0.801-0.326-0.801-0.834v-4.05H88.624z M81.493,43.77c-0.901,0-1.392-0.56-1.392-1.257c0-0.696,0.49-1.264,1.392-1.264
	c0.924,0,1.38,0.567,1.38,1.264C82.873,43.21,82.417,43.77,81.493,43.77 M81.54,37.783c-1.28,0-2.073,0.869-2.073,2.077v0.17h0.803
	v-0.146c0-0.825,0.476-1.336,1.271-1.336c0.863,0,1.3,0.581,1.3,1.452v1.118c-0.324-0.326-0.798-0.541-1.428-0.541
	c-1.37,0-2.126,0.84-2.126,1.935c0,1.093,0.729,1.939,2.058,1.939c0.74,0,1.262-0.294,1.582-0.717v0.573h0.727v-4.332
	C83.652,38.714,82.882,37.783,81.54,37.783z M77.392,38.657v-0.731h-1.275v-1.954h-0.803v1.954h-0.93v0.731h0.93v4.201
	c0,0.846,0.6,1.449,1.468,1.449h0.593v-0.767h-0.457c-0.484,0-0.801-0.326-0.801-0.834v-4.05H77.392z M71.786,39.972h0.804v-0.107
	c0-1.375-0.943-2.081-2.076-2.081c-1.201,0-1.982,0.817-1.979,1.767c0.004,1.138,0.798,1.525,1.633,1.8l0.548,0.175
	c0.707,0.224,1.168,0.485,1.168,1.099c0,0.633-0.523,1.062-1.312,1.062c-0.736,0-1.354-0.463-1.354-1.297v-0.137h-0.803v0.237
	c0,1.077,0.866,1.964,2.157,1.964c1.297,0,2.114-0.823,2.114-1.854c0-1.088-0.789-1.524-1.736-1.831l-0.539-0.175
	c-0.616-0.204-1.074-0.451-1.074-1.076c0-0.458,0.383-0.968,1.178-0.968c0.826,0,1.272,0.485,1.272,1.303V39.972z M66.019,44.309
	h0.938l-2.324-3.68l2.148-2.703h-0.984l-2.459,3.076v-5.439h-0.804v8.746h0.804v-2.149l0.737-0.92L66.019,44.309z M60.259,37.782
	c-0.781,0-1.334,0.361-1.65,0.96v-0.816h-0.743v6.383h0.803v-3.974c0-1.077,0.585-1.691,1.478-1.691h0.334v-0.861H60.259z
	 M52.884,38.549c0.912,0,1.394,0.61,1.394,1.493v0.548h-2.785v-0.534C51.493,39.159,51.987,38.549,52.884,38.549 M54.314,42.244
	v0.105c0,0.775-0.498,1.335-1.409,1.335c-0.91,0-1.412-0.624-1.412-1.499v-0.864h3.588v-1.304c0-1.302-0.806-2.234-2.194-2.234
	c-1.379,0-2.197,0.933-2.197,2.249v2.178c0,1.29,0.828,2.242,2.219,2.242c1.386,0,2.209-0.889,2.209-2.09v-0.118H54.314z
	 M47.929,37.926l-1.299,5.121l-1.416-5.121h-0.678l-1.411,5.12l-1.295-5.12h-0.858l1.717,6.383h0.781l1.405-4.802l1.403,4.802h0.771
	l1.729-6.383H47.929z M39.173,38.657v-0.731h-1.277v-1.954h-0.801v1.954h-0.931v0.731h0.931v4.201c0,0.846,0.6,1.449,1.467,1.449
	h0.594v-0.767h-0.458c-0.483,0-0.802-0.326-0.802-0.834v-4.05H39.173z M33.751,44.309h0.938l-2.323-3.68l2.147-2.703H33.53
	l-2.461,3.076v-5.439h-0.802v8.746h0.802v-2.149l0.737-0.92L33.751,44.309z M25.705,38.549c0.911,0,1.395,0.61,1.395,1.493v0.548
	h-2.787v-0.534C24.312,39.159,24.806,38.549,25.705,38.549 M27.134,42.244v0.105c0,0.775-0.498,1.335-1.408,1.335
	s-1.414-0.624-1.414-1.499v-0.864h3.589v-1.304c0-1.302-0.806-2.234-2.193-2.234c-1.379,0-2.196,0.933-2.196,2.249v2.178
	c0,1.29,0.826,2.242,2.217,2.242c1.387,0,2.209-0.889,2.209-2.09v-0.118H27.134z M20.271,44.789c0,0.492-0.28,0.793-0.705,0.793
	h-0.278v0.73h0.408c0.817,0,1.377-0.608,1.377-1.448v-6.938h-0.802V44.789z M21.157,35.621h-0.935v1.041h0.935V35.621z
	 M17.031,40.05v2.134c0,0.892-0.494,1.501-1.393,1.501s-1.393-0.609-1.393-1.501V40.05c0-0.89,0.494-1.501,1.393-1.501
	S17.031,39.16,17.031,40.05 M15.638,37.783c-1.381,0-2.195,0.938-2.195,2.242v2.183c0,1.306,0.814,2.244,2.195,2.244
	s2.195-0.938,2.195-2.244v-2.183C17.833,38.721,17.019,37.783,15.638,37.783 M11.757,37.782c-0.781,0-1.334,0.361-1.652,0.96v-0.816
	H9.363v6.383h0.803v-3.974c0-1.077,0.585-1.691,1.479-1.691h0.334v-0.861H11.757z M6.28,42.184c0,0.895-0.491,1.501-1.363,1.501
	s-1.362-0.606-1.362-1.453v-2.229c0-0.847,0.49-1.453,1.362-1.453S6.28,39.155,6.28,40.05V42.184z M5.015,37.783
	c-0.713,0-1.221,0.312-1.521,0.818v-0.676H2.751v8.387h0.803v-2.509c0.308,0.406,0.785,0.648,1.461,0.648
	c1.265,0,2.066-0.939,2.066-2.244v-2.183C7.082,38.72,6.28,37.783,5.015,37.783z"/>
<path fill="#BDC131" d="M105.673,16.57c-1.309,0-2.215,0.603-2.772,1.57v-1.298h-2.541V28.31h2.793v-6.679
	c0-1.386,0.903-2.142,2.163-2.142h0.777V16.57H105.673z M93.074,20.812v3.527c0,0.861-0.547,1.597-1.533,1.597
	c-0.987,0-1.533-0.735-1.533-1.597v-3.527c0-0.861,0.546-1.597,1.533-1.597C92.527,19.216,93.074,19.951,93.074,20.812
	 M91.541,16.57c-2.723,0-4.326,1.869-4.326,4.2v3.611c0,2.331,1.604,4.2,4.326,4.2c2.722,0,4.326-1.869,4.326-4.2v-3.611
	C95.867,18.439,94.262,16.57,91.541,16.57 M83.759,19.363v-2.521h-2.1v-3.171h-2.793v3.171h-1.49v2.521h1.49v6.048
	c0,1.68,1.323,2.898,3.108,2.898h1.7v-2.688H82.5c-0.482,0-0.84-0.188-0.84-0.819v-5.438H83.759z M73.544,16.57
	c-1.309,0-2.215,0.603-2.772,1.57v-1.298h-2.541V28.31h2.793v-6.679c0-1.386,0.903-2.142,2.163-2.142h0.777V16.57H73.544z
	 M59.453,19.216c1.008,0,1.533,0.735,1.533,1.639v0.252h-3.003v-0.294C57.983,19.951,58.487,19.216,59.453,19.216 M61.091,24.487
	v0.021c0,0.799-0.588,1.429-1.575,1.429c-1.009,0-1.533-0.696-1.533-1.597v-0.818h5.796v-2.709c0-2.373-1.596-4.242-4.326-4.242
	c-2.666,0-4.263,1.869-4.263,4.2v3.611c0,2.37,1.617,4.2,4.326,4.2c2.729,0,4.347-1.764,4.347-4.032v-0.062H61.091z M48.408,20.623
	h2.793v-0.21c0-2.694-2.281-3.843-4.117-3.843c-2.344,0-4.01,1.398-3.989,3.444c0.016,1.848,0.926,2.786,2.638,3.404l1.109,0.398
	c0.908,0.319,1.755,0.573,1.755,1.216c0,0.588-0.567,0.903-1.302,0.903c-0.861,0-1.533-0.462-1.533-1.345v-0.168h-2.793v0.441
	c0,2.058,1.73,3.717,4.242,3.717c2.582,0,4.179-1.533,4.179-3.633c0-1.827-1.037-2.821-2.612-3.39l-1.054-0.374
	c-1.101-0.372-1.836-0.563-1.836-1.192c0-0.409,0.315-0.777,1.196-0.777c0.84,0,1.324,0.537,1.324,1.177V20.623z M36.08,20.623
	h2.793v-0.21c0-2.694-2.279-3.843-4.115-3.843c-2.344,0-4.012,1.398-3.99,3.444c0.016,1.848,0.927,2.786,2.639,3.404l1.109,0.398
	c0.908,0.319,1.754,0.573,1.754,1.216c0,0.588-0.566,0.903-1.303,0.903c-0.86,0-1.532-0.462-1.532-1.345v-0.168h-2.793v0.441
	c0,2.058,1.729,3.717,4.241,3.717c2.584,0,4.18-1.533,4.18-3.633c0-1.827-1.037-2.821-2.611-3.39l-1.055-0.374
	c-1.1-0.372-1.836-0.563-1.836-1.192c0-0.409,0.314-0.777,1.197-0.777c0.84,0,1.322,0.537,1.322,1.177V20.623z M22.257,26.314
	c-0.932,0-1.514-0.651-1.514-1.365s0.582-1.365,1.514-1.365c0.971,0,1.471,0.651,1.471,1.365S23.228,26.314,22.257,26.314
	 M22.317,16.57c-2.446,0-4.101,1.617-4.101,3.969v0.126h2.793v-0.126c0-0.819,0.539-1.323,1.308-1.323
	c0.804,0,1.308,0.651,1.308,1.617v1.024c-0.494-0.332-1.117-0.541-1.881-0.541c-2.437,0-3.812,1.596-3.812,3.633
	s1.291,3.633,3.603,3.633c1.108,0,1.916-0.438,2.471-1.054v0.781h2.41v-7.497C26.416,18.439,24.845,16.57,22.317,16.57
	 M11.865,16.843l-1.516,7.305L8.63,16.843H6.153l-1.708,7.345L2.94,16.843H0L2.792,28.31h2.877l1.725-6.74l1.72,6.74h2.858
	l2.793-11.467H11.865z"/>
<rect y="0.001" fill="none" width="165.15" height="46.479"/>
</svg>
